<mxfile host="65bd71144e">
    <diagram name="PÃ¡gina-1" id="PEOgwWRZTEKnpGnDhX0n">
        <mxGraphModel dx="1294" dy="619" grid="1" gridSize="10" guides="1" tooltips="1" connect="1" arrows="1" fold="1" page="1" pageScale="1" pageWidth="827" pageHeight="1169" math="0" shadow="0">
            <root>
                <mxCell id="0"/>
                <mxCell id="1" parent="0"/>
                <mxCell id="WsXqeUjdmSu_JGLrSawx-9" value="JuegosDeCasino" style="swimlane;fontStyle=0;childLayout=stackLayout;horizontal=1;startSize=26;fillColor=#f8cecc;horizontalStack=0;resizeParent=1;resizeParentMax=0;resizeLast=0;collapsible=1;marginBottom=0;whiteSpace=wrap;html=1;strokeColor=#b85450;rounded=1;" parent="1" vertex="1">
                    <mxGeometry x="300" y="110" width="240" height="100" as="geometry"/>
                </mxCell>
                <mxCell id="WsXqeUjdmSu_JGLrSawx-10" value="#juegoDisponible:string" style="text;strokeColor=none;fillColor=none;align=left;verticalAlign=top;spacingLeft=4;spacingRight=4;overflow=hidden;rotatable=0;points=[[0,0.5],[1,0.5]];portConstraint=eastwest;whiteSpace=wrap;html=1;" parent="WsXqeUjdmSu_JGLrSawx-9" vertex="1">
                    <mxGeometry y="26" width="240" height="26" as="geometry"/>
                </mxCell>
                <mxCell id="WsXqeUjdmSu_JGLrSawx-11" value="#apuestaMinima:number" style="text;strokeColor=none;fillColor=none;align=left;verticalAlign=top;spacingLeft=4;spacingRight=4;overflow=hidden;rotatable=0;points=[[0,0.5],[1,0.5]];portConstraint=eastwest;whiteSpace=wrap;html=1;" parent="WsXqeUjdmSu_JGLrSawx-9" vertex="1">
                    <mxGeometry y="52" width="240" height="26" as="geometry"/>
                </mxCell>
                <mxCell id="WsXqeUjdmSu_JGLrSawx-12" value="#cantDeJugadores:number" style="text;strokeColor=none;fillColor=none;align=left;verticalAlign=top;spacingLeft=4;spacingRight=4;overflow=hidden;rotatable=0;points=[[0,0.5],[1,0.5]];portConstraint=eastwest;whiteSpace=wrap;html=1;" parent="WsXqeUjdmSu_JGLrSawx-9" vertex="1">
                    <mxGeometry y="78" width="240" height="22" as="geometry"/>
                </mxCell>
                <mxCell id="WsXqeUjdmSu_JGLrSawx-14" value="+Constructor()&lt;br&gt;+set &amp;amp;get" style="html=1;dropTarget=0;whiteSpace=wrap;" parent="1" vertex="1">
                    <mxGeometry x="310" y="210" width="220" height="90" as="geometry"/>
                </mxCell>
                <mxCell id="WsXqeUjdmSu_JGLrSawx-15" value="" style="shape=module;jettyWidth=8;jettyHeight=4;" parent="WsXqeUjdmSu_JGLrSawx-14" vertex="1">
                    <mxGeometry x="1" width="20" height="20" relative="1" as="geometry">
                        <mxPoint x="-27" y="7" as="offset"/>
                    </mxGeometry>
                </mxCell>
                <mxCell id="WsXqeUjdmSu_JGLrSawx-18" value="" style="strokeWidth=2;html=1;shape=mxgraph.flowchart.annotation_2;align=left;labelPosition=right;pointerEvents=1;direction=south;" parent="1" vertex="1">
                    <mxGeometry x="80" y="300" width="490" height="200" as="geometry"/>
                </mxCell>
                <mxCell id="WsXqeUjdmSu_JGLrSawx-19" value="Dados" style="swimlane;fontStyle=0;childLayout=stackLayout;horizontal=1;startSize=26;fillColor=none;horizontalStack=0;resizeParent=1;resizeParentMax=0;resizeLast=0;collapsible=1;marginBottom=0;whiteSpace=wrap;html=1;" parent="1" vertex="1">
                    <mxGeometry y="500" width="190" height="78" as="geometry"/>
                </mxCell>
                <mxCell id="WsXqeUjdmSu_JGLrSawx-20" value="-mesaCompleta:boolean;" style="text;strokeColor=none;fillColor=none;align=left;verticalAlign=top;spacingLeft=4;spacingRight=4;overflow=hidden;rotatable=0;points=[[0,0.5],[1,0.5]];portConstraint=eastwest;whiteSpace=wrap;html=1;" parent="WsXqeUjdmSu_JGLrSawx-19" vertex="1">
                    <mxGeometry y="26" width="190" height="26" as="geometry"/>
                </mxCell>
                <mxCell id="WsXqeUjdmSu_JGLrSawx-21" value="-jugadoresConPremio:number" style="text;strokeColor=none;fillColor=none;align=left;verticalAlign=top;spacingLeft=4;spacingRight=4;overflow=hidden;rotatable=0;points=[[0,0.5],[1,0.5]];portConstraint=eastwest;whiteSpace=wrap;html=1;" parent="WsXqeUjdmSu_JGLrSawx-19" vertex="1">
                    <mxGeometry y="52" width="190" height="26" as="geometry"/>
                </mxCell>
                <mxCell id="WsXqeUjdmSu_JGLrSawx-23" value="+constructor&lt;br&gt;+set &amp;amp; get" style="html=1;whiteSpace=wrap;" parent="1" vertex="1">
                    <mxGeometry y="578" width="190" height="52" as="geometry"/>
                </mxCell>
                <mxCell id="WsXqeUjdmSu_JGLrSawx-24" value="Poker" style="swimlane;fontStyle=0;childLayout=stackLayout;horizontal=1;startSize=26;fillColor=none;horizontalStack=0;resizeParent=1;resizeParentMax=0;resizeLast=0;collapsible=1;marginBottom=0;whiteSpace=wrap;html=1;" parent="1" vertex="1">
                    <mxGeometry x="470" y="500" width="190" height="78" as="geometry"/>
                </mxCell>
                <mxCell id="WsXqeUjdmSu_JGLrSawx-25" value="-mesaCompleta:boolean;" style="text;strokeColor=none;fillColor=none;align=left;verticalAlign=top;spacingLeft=4;spacingRight=4;overflow=hidden;rotatable=0;points=[[0,0.5],[1,0.5]];portConstraint=eastwest;whiteSpace=wrap;html=1;" parent="WsXqeUjdmSu_JGLrSawx-24" vertex="1">
                    <mxGeometry y="26" width="190" height="26" as="geometry"/>
                </mxCell>
                <mxCell id="WsXqeUjdmSu_JGLrSawx-26" value="-jugadoresConPremio:number" style="text;strokeColor=none;fillColor=none;align=left;verticalAlign=top;spacingLeft=4;spacingRight=4;overflow=hidden;rotatable=0;points=[[0,0.5],[1,0.5]];portConstraint=eastwest;whiteSpace=wrap;html=1;" parent="WsXqeUjdmSu_JGLrSawx-24" vertex="1">
                    <mxGeometry y="52" width="190" height="26" as="geometry"/>
                </mxCell>
                <mxCell id="WsXqeUjdmSu_JGLrSawx-28" value="+constructor&lt;br&gt;+set &amp;amp; get" style="html=1;whiteSpace=wrap;" parent="1" vertex="1">
                    <mxGeometry x="470" y="578" width="190" height="52" as="geometry"/>
                </mxCell>
                <mxCell id="WsXqeUjdmSu_JGLrSawx-29" value="Casino" style="swimlane;fontStyle=0;childLayout=stackLayout;horizontal=1;startSize=26;fillColor=none;horizontalStack=0;resizeParent=1;resizeParentMax=0;resizeLast=0;collapsible=1;marginBottom=0;whiteSpace=wrap;html=1;" parent="1" vertex="1">
                    <mxGeometry x="220" y="760" width="140" height="78" as="geometry"/>
                </mxCell>
                <mxCell id="WsXqeUjdmSu_JGLrSawx-30" value="-cobroPremio:boolean" style="text;strokeColor=none;fillColor=none;align=left;verticalAlign=top;spacingLeft=4;spacingRight=4;overflow=hidden;rotatable=0;points=[[0,0.5],[1,0.5]];portConstraint=eastwest;whiteSpace=wrap;html=1;" parent="WsXqeUjdmSu_JGLrSawx-29" vertex="1">
                    <mxGeometry y="26" width="140" height="26" as="geometry"/>
                </mxCell>
                <mxCell id="WsXqeUjdmSu_JGLrSawx-31" value="-premioMayor:number;" style="text;strokeColor=none;fillColor=none;align=left;verticalAlign=top;spacingLeft=4;spacingRight=4;overflow=hidden;rotatable=0;points=[[0,0.5],[1,0.5]];portConstraint=eastwest;whiteSpace=wrap;html=1;" parent="WsXqeUjdmSu_JGLrSawx-29" vertex="1">
                    <mxGeometry y="52" width="140" height="26" as="geometry"/>
                </mxCell>
                <mxCell id="WsXqeUjdmSu_JGLrSawx-34" value="+constructor&lt;br&gt;+set &amp;amp; get" style="html=1;whiteSpace=wrap;" parent="1" vertex="1">
                    <mxGeometry x="220" y="838" width="140" height="52" as="geometry"/>
                </mxCell>
                <mxCell id="WsXqeUjdmSu_JGLrSawx-37" style="edgeStyle=orthogonalEdgeStyle;rounded=0;orthogonalLoop=1;jettySize=auto;html=1;exitX=1;exitY=0;exitDx=0;exitDy=0;exitPerimeter=0;entryX=0.316;entryY=1.058;entryDx=0;entryDy=0;entryPerimeter=0;" parent="1" source="WsXqeUjdmSu_JGLrSawx-35" target="WsXqeUjdmSu_JGLrSawx-23" edge="1">
                    <mxGeometry relative="1" as="geometry"/>
                </mxCell>
                <mxCell id="WsXqeUjdmSu_JGLrSawx-39" style="edgeStyle=orthogonalEdgeStyle;rounded=0;orthogonalLoop=1;jettySize=auto;html=1;exitX=1;exitY=1;exitDx=0;exitDy=0;exitPerimeter=0;entryX=0.537;entryY=1.019;entryDx=0;entryDy=0;entryPerimeter=0;" parent="1" source="WsXqeUjdmSu_JGLrSawx-35" target="WsXqeUjdmSu_JGLrSawx-28" edge="1">
                    <mxGeometry relative="1" as="geometry"/>
                </mxCell>
                <mxCell id="WsXqeUjdmSu_JGLrSawx-35" value="" style="strokeWidth=2;html=1;shape=mxgraph.flowchart.annotation_2;align=left;labelPosition=right;pointerEvents=1;direction=north;" parent="1" vertex="1">
                    <mxGeometry x="60" y="710" width="510" height="50" as="geometry"/>
                </mxCell>
                <mxCell id="WsXqeUjdmSu_JGLrSawx-36" value="" style="line;strokeWidth=1;fillColor=none;align=left;verticalAlign=middle;spacingTop=-1;spacingLeft=3;spacingRight=3;rotatable=0;labelPosition=right;points=[];portConstraint=eastwest;strokeColor=inherit;" parent="1" vertex="1">
                    <mxGeometry x="440" y="610" width="40" height="8" as="geometry"/>
                </mxCell>
                <mxCell id="WsXqeUjdmSu_JGLrSawx-38" value="" style="line;strokeWidth=1;fillColor=none;align=left;verticalAlign=middle;spacingTop=-1;spacingLeft=3;spacingRight=3;rotatable=0;labelPosition=right;points=[];portConstraint=eastwest;strokeColor=inherit;" parent="1" vertex="1">
                    <mxGeometry x="440" y="610" width="40" height="8" as="geometry"/>
                </mxCell>
            </root>
        </mxGraphModel>
    </diagram>
</mxfile>